<svg xmlns="http://www.w3.org/2000/svg" viewBox="0 0 144.98 106.53"><defs><style>.cls-1,.cls-2{fill:none;stroke:#fff;stroke-linecap:round;stroke-width:4px;}.cls-1{stroke-miterlimit:10;}.cls-2{stroke-linejoin:round;}.cls-3{fill:#fff;}.cls-4{fill:#231f20;}</style></defs><title>CarInventory_white</title><g id="Layer_1" data-name="Layer 1"><circle class="cls-1" cx="123.81" cy="85.36" r="19.17"/><line class="cls-1" x1="115.97" y1="86.13" x2="120.29" y2="91.01"/><line class="cls-1" x1="130.51" y1="80.78" x2="120.44" y2="90.85"/><path class="cls-1" d="M104.47,118.5H70.08a3.65,3.65,0,0,1-3.65-3.65V39.6a3,3,0,0,1,3-3h7.16" transform="translate(-3.02 -21.04)"/><path class="cls-2" d="M127.9,36.5H135a2.23,2.23,0,0,1,2.23,2.23v44" transform="translate(-3.02 -21.04)"/><path class="cls-1" d="M124.61,53.64" transform="translate(-3.02 -21.04)"/><line class="cls-1" x1="93.6" y1="37.64" x2="121.58" y2="37.64"/><rect class="cls-1" x="72.2" y="51.64" width="12.02" height="10.66" rx="0.41" ry="0.41"/><rect class="cls-1" x="72.2" y="32.13" width="12.02" height="10.66" rx="0.41" ry="0.41"/><rect class="cls-1" x="72.2" y="71.88" width="12.02" height="10.66" rx="0.41" ry="0.41"/><line class="cls-1" x1="93.58" y1="56.67" x2="111.81" y2="56.67"/><line class="cls-1" x1="93.73" y1="77.71" x2="97.69" y2="77.71"/><path class="cls-1" d="M85.19,38.24h34.46a1.45,1.45,0,0,0,1.45-1.45V30.93a2.18,2.18,0,0,0-2.17-2.18h-4.41a2,2,0,0,1-2-2v0A3.63,3.63,0,0,0,108.86,23H96a3.63,3.63,0,0,0-3.63,3.63v.53a2,2,0,0,1-2,2h-4.4a2.18,2.18,0,0,0-2.18,2.18v5.38A1.45,1.45,0,0,0,85.19,38.24Z" transform="translate(-3.02 -21.04)"/><path class="cls-3" d="M52,100.4c3.19,0,6.37,0,9.56,0h0C58.4,100.36,55.22,100.39,52,100.4Z" transform="translate(-3.02 -21.04)"/><path class="cls-4" d="M58.47,97.73c-3.15,0-6.3,0-9.45,0s-6.37,0-9.55-.08c-4-.09-4.12,2.47-4.15,5.46s.65,5,4.23,5q9.47-.09,18.93-.08a.78.78,0,0,0,.78-.79V98.52Z" transform="translate(-3.02 -21.04)"/><path class="cls-4" d="M38.33,43.15a11,11,0,0,0-9.92,5.9c-2.82,4.81-5.79,9.52-8.55,14.35a11.77,11.77,0,0,0-1,3.37.77.77,0,0,0,.51.9,10.23,10.23,0,0,0,3.07.79c12,.08,24,.05,36.05.05.25,0,.5.78.75.78V43.88a.79.79,0,0,0-.78-.79Q48.4,43.09,38.33,43.15Z" transform="translate(-3.02 -21.04)"/><path class="cls-3" d="M58.51,68.51c-12,0-24,0-36-.05,12,.08,24,.05,36.05.05h0Z" transform="translate(-3.02 -21.04)"/><path class="cls-3" d="M59.26,99.27v-30l-.78-.78c-12,0-24,0-36-.05a10.23,10.23,0,0,1-3.07-.79.77.77,0,0,1-.51-.9,11.77,11.77,0,0,1,1-3.37c2.76-4.83,5.73-9.54,8.55-14.35a11,11,0,0,1,9.92-5.9q10.06-.06,20.15-.06a.78.78,0,0,0,.78-.78V38.6a.78.78,0,0,0-.78-.78q-10,0-19.9.06c-6.34,0-11.27,2.88-14.59,8.56-1.9,3.24-3.79,6.49-5.85,9.62a5.12,5.12,0,0,1-3.41,2c-2.42.17-4.86,0-7.29.06s-3.94,1.4-4.33,3.93A3.86,3.86,0,0,0,6,66.87c1.21.38,2.42.81,3.77,1.28a.79.79,0,0,1,.39,1.19,25.79,25.79,0,0,0-4.85,14C5,95.42,5,107.53,4.78,119.64c0,2.31,1.34,3,3.3,3.06,3.49,0,7,.06,10.48,0,2.62,0,3.41-1,3.46-3.75,0-1.67,0-3.33,0-5.09a.79.79,0,0,1,.79-.8H58.48a.78.78,0,0,0,.78-.78v-5.33a.79.79,0,0,0-.79-.79q-6.18,0-12.37,0c-2.39,0-2.84-1.28-2.82-3.32s.1-3.7,2.77-3.64c2.12.05,4.25.05,6.38.05M31.89,88.19a4.53,4.53,0,0,1-4.62,3.72c-1.62,0-3.24,0-4.86,0h0c-1.71,0-3.41.07-5.11,0a5.84,5.84,0,0,1-5.5-4.16A6.34,6.34,0,0,1,13,81.38a5.59,5.59,0,0,1,6.39-1.75c3.13,1.1,6.28,2.21,9.38,3.42A4.63,4.63,0,0,1,31.89,88.19Z" transform="translate(-3.02 -21.04)"/><path class="cls-4" d="M28.81,83.05c-3.1-1.21-6.25-2.32-9.38-3.42A5.59,5.59,0,0,0,13,81.38a6.34,6.34,0,0,0-1.24,6.35,5.84,5.84,0,0,0,5.5,4.16c1.7.09,3.4,0,5.11,0h0c1.62,0,3.24,0,4.86,0a4.53,4.53,0,0,0,4.62-3.72A4.63,4.63,0,0,0,28.81,83.05Z" transform="translate(-3.02 -21.04)"/></g></svg>