<?xml version="1.0" encoding="utf-8"?>
<!-- Generator: Adobe Illustrator 22.0.0, SVG Export Plug-In . SVG Version: 6.00 Build 0)  -->
<svg version="1.1" xmlns="http://www.w3.org/2000/svg" xmlns:xlink="http://www.w3.org/1999/xlink" x="0px" y="0px"
	 viewBox="0 0 150 150" style="enable-background:new 0 0 150 150;" xml:space="preserve">
<style type="text/css">
	.st0{fill:none;stroke:#000000;stroke-width:4;stroke-linecap:round;stroke-miterlimit:10;}
	.st1{fill:none;stroke:#000000;stroke-width:4;stroke-linecap:round;stroke-linejoin:round;stroke-miterlimit:10;}
	.st2{fill:none;}
	.st3{fill:#FFFFFF;}
</style>
<g id="Layer_2">
</g>
<g id="Layer_1">
	<g>
		<circle class="st0" cx="125.8" cy="106.4" r="19.2"/>
		<line class="st0" x1="118" y1="107.2" x2="122.3" y2="112"/>
		<line class="st0" x1="132.5" y1="101.8" x2="122.5" y2="111.9"/>
		<path class="st0" d="M103.5,118.5H69.1c-2,0-3.7-1.6-3.7-3.7V39.6c0-1.7,1.3-3,3-3h7.2"/>
		<path class="st1" d="M126.9,36.5h7.1c1.2,0,2.2,1,2.2,2.2v44"/>
		<g>
			<path class="st0" d="M84.1,57.7h-7.7c-0.2,0-0.4-0.2-0.4-0.4v-6.7c0-0.2,0.2-0.4,0.4-0.4h7.7c0.2,0,0.4,0.2,0.4,0.4v6.7
				C84.5,57.5,84.3,57.7,84.1,57.7z"/>
			<line class="st0" x1="90.4" y1="53.6" x2="123.6" y2="53.6"/>
		</g>
		<g>
			<path class="st0" d="M84.1,73.7h-7.7c-0.2,0-0.4-0.2-0.4-0.4v-6.7c0-0.2,0.2-0.4,0.4-0.4h7.7c0.2,0,0.4,0.2,0.4,0.4v6.7
				C84.5,73.6,84.3,73.7,84.1,73.7z"/>
			<line class="st0" x1="90.4" y1="69.7" x2="123.6" y2="69.7"/>
		</g>
		<g>
			<path class="st0" d="M84.1,89.8h-7.7c-0.2,0-0.4-0.2-0.4-0.4v-6.7c0-0.2,0.2-0.4,0.4-0.4h7.7c0.2,0,0.4,0.2,0.4,0.4v6.7
				C84.5,89.6,84.3,89.8,84.1,89.8z"/>
			<line class="st0" x1="90.4" y1="85.7" x2="108.6" y2="85.7"/>
		</g>
		<g>
			<path class="st0" d="M84.1,105.8h-7.7c-0.2,0-0.4-0.2-0.4-0.4v-6.7c0-0.2,0.2-0.4,0.4-0.4h7.7c0.2,0,0.4,0.2,0.4,0.4v6.7
				C84.5,105.6,84.3,105.8,84.1,105.8z"/>
			<line class="st0" x1="90.4" y1="101.8" x2="99.7" y2="101.8"/>
		</g>
		<path class="st0" d="M84.2,38.2h34.5c0.8,0,1.5-0.7,1.5-1.5v-5.9c0-1.2-1-2.2-2.2-2.2h-4.4c-1.1,0-2-0.9-2-2v0
			c0-2-1.6-3.6-3.6-3.6H95c-2,0-3.6,1.6-3.6,3.6v0.5c0,1.1-0.9,2-2,2h-4.4c-1.2,0-2.2,1-2.2,2.2v5.4C82.7,37.6,83.4,38.2,84.2,38.2z
			"/>
	</g>
	<g>
		<path class="st2" d="M52,100.4c3.2,0,6.4,0,9.6,0c0.2,0,0.5,0,0.7,0v0c-0.2,0-0.5,0-0.7,0C58.4,100.4,55.2,100.4,52,100.4z"/>
		<path class="st3" d="M58.5,97.7c-3.1,0-6.3,0-9.4,0c-3.2,0-6.4,0-9.6-0.1c-4-0.1-4.1,2.5-4.1,5.5c0,3.1,0.6,5,4.2,5
			c6.3-0.1,12.6-0.1,18.9-0.1c0.4,0,0.8-0.4,0.8-0.8v-8.7C59,98.2,58.8,98,58.5,97.7z"/>
		<g>
			<path class="st3" d="M38.3,43.1c-4.3,0-7.6,2-9.9,5.9c-2.8,4.8-5.8,9.5-8.6,14.3c-0.6,1-0.7,2.2-1,3.4c-0.1,0.4,0.1,0.8,0.5,0.9
				c1,0.3,2,0.8,3.1,0.8c12,0.1,24,0,36,0c0.2,0,0.5,0.8,0.7,0.8V43.9c0-0.4-0.4-0.8-0.8-0.8C51.8,43.1,45,43.1,38.3,43.1z"/>
			<path class="st2" d="M58.5,68.5c-12,0-24,0-36,0C34.5,68.5,46.5,68.5,58.5,68.5c0.2,0,0.5,0,0.7,0v0C59,68.5,58.8,68.5,58.5,68.5
				z"/>
			<path d="M59.3,99.3v-30c-0.3-0.3-0.5-0.5-0.8-0.8c-12,0-24,0-36,0c-1,0-2.1-0.4-3.1-0.8c-0.4-0.1-0.6-0.5-0.5-0.9
				c0.3-1.2,0.4-2.4,1-3.4c2.8-4.8,5.7-9.5,8.6-14.3c2.3-3.9,5.6-5.9,9.9-5.9c6.7,0,13.4-0.1,20.2-0.1c0.4,0,0.8-0.4,0.8-0.8v-3.7
				c0-0.4-0.4-0.8-0.8-0.8c-6.6,0-13.3,0-19.9,0.1c-6.3,0-11.3,2.9-14.6,8.6c-1.9,3.2-3.8,6.5-5.8,9.6c-0.7,1-2.2,1.9-3.4,2
				c-2.4,0.2-4.9,0-7.3,0.1c-2.5,0.1-3.9,1.4-4.3,3.9c-0.4,2.5,0.6,4.1,2.9,4.8c1.2,0.4,2.4,0.8,3.8,1.3c0.5,0.2,0.7,0.8,0.4,1.2
				c-3,4.4-4.7,8.9-4.8,14C5,95.4,5,107.5,4.8,119.6c0,2.3,1.3,3,3.3,3.1c3.5,0,7,0.1,10.5,0c2.6-0.1,3.4-0.9,3.5-3.8
				c0-1.7,0-3.3,0-5.1c0-0.4,0.4-0.8,0.8-0.8h35.7c0.4,0,0.8-0.4,0.8-0.8v-5.3c0-0.4-0.4-0.8-0.8-0.8c-4.1,0-8.2,0-12.4,0.1
				c-2.4,0-2.8-1.3-2.8-3.3c0-2,0.1-3.7,2.8-3.6c2.1,0,4.3,0.1,6.4,0.1 M31.9,88.2c-0.4,2.2-2.2,3.6-4.6,3.7c-1.6,0-3.2,0-4.9,0
				c0,0,0,0,0,0c-1.7,0-3.4,0.1-5.1,0c-2.7-0.1-4.6-1.6-5.5-4.2c-0.8-2.2-0.3-4.6,1.2-6.3c1.7-1.9,3.9-2.6,6.4-1.8
				c3.1,1.1,6.3,2.2,9.4,3.4C31.1,83.9,32.3,86,31.9,88.2z"/>
			<path class="st3" d="M28.8,83c-3.1-1.2-6.2-2.3-9.4-3.4c-2.5-0.9-4.6-0.2-6.4,1.8c-1.5,1.7-2,4.2-1.2,6.3c0.9,2.6,2.8,4,5.5,4.2
				c1.7,0.1,3.4,0,5.1,0c0,0,0,0,0,0c1.6,0,3.2,0,4.9,0c2.5-0.1,4.2-1.5,4.6-3.7C32.3,86,31.1,83.9,28.8,83z"/>
		</g>
	</g>
	<g>
	</g>
	<g>
	</g>
	<g>
	</g>
	<g>
	</g>
	<g>
	</g>
	<g>
	</g>
</g>
</svg>
